<mxfile host="app.diagrams.net" modified="2022-09-05T06:33:39.273Z" agent="5.0 (Macintosh; Intel Mac OS X 10_15_7) AppleWebKit/537.36 (KHTML, like Gecko) Chrome/104.0.0.0 Safari/537.36" etag="Hd2OFBC92LNlFzn-o2rT" version="18.1.3" type="github">
  <diagram id="wbaYe7P9s4XDuXlz-XJZ" name="Page-1">
    <mxGraphModel dx="2529" dy="2247" grid="1" gridSize="10" guides="1" tooltips="1" connect="1" arrows="1" fold="1" page="1" pageScale="1" pageWidth="827" pageHeight="1169" math="0" shadow="0">
      <root>
        <mxCell id="0" />
        <mxCell id="1" parent="0" />
        <mxCell id="kGQ6iBnwzE2i0ThxCA0L-56" value="" style="rounded=1;whiteSpace=wrap;html=1;fontSize=12;fillColor=#dae8fc;strokeColor=#6c8ebf;" vertex="1" parent="1">
          <mxGeometry x="190" y="-190" width="560" height="430" as="geometry" />
        </mxCell>
        <mxCell id="kGQ6iBnwzE2i0ThxCA0L-9" value="" style="shape=cube;whiteSpace=wrap;html=1;boundedLbl=1;backgroundOutline=1;darkOpacity=0.05;darkOpacity2=0.1;" vertex="1" parent="1">
          <mxGeometry x="250" y="70" width="440" height="140" as="geometry" />
        </mxCell>
        <mxCell id="kGQ6iBnwzE2i0ThxCA0L-27" style="edgeStyle=orthogonalEdgeStyle;rounded=0;orthogonalLoop=1;jettySize=auto;html=1;exitX=0;exitY=0;exitDx=440;exitDy=80;exitPerimeter=0;fontSize=12;" edge="1" parent="1" source="kGQ6iBnwzE2i0ThxCA0L-7" target="kGQ6iBnwzE2i0ThxCA0L-26">
          <mxGeometry relative="1" as="geometry" />
        </mxCell>
        <mxCell id="kGQ6iBnwzE2i0ThxCA0L-28" value="采集吃瓜资源" style="edgeLabel;html=1;align=center;verticalAlign=middle;resizable=0;points=[];fontSize=12;" vertex="1" connectable="0" parent="kGQ6iBnwzE2i0ThxCA0L-27">
          <mxGeometry x="-0.2181" y="-1" relative="1" as="geometry">
            <mxPoint as="offset" />
          </mxGeometry>
        </mxCell>
        <mxCell id="kGQ6iBnwzE2i0ThxCA0L-7" value="" style="shape=cube;whiteSpace=wrap;html=1;boundedLbl=1;backgroundOutline=1;darkOpacity=0.05;darkOpacity2=0.1;" vertex="1" parent="1">
          <mxGeometry x="250" y="260" width="440" height="140" as="geometry" />
        </mxCell>
        <mxCell id="kGQ6iBnwzE2i0ThxCA0L-2" value="微信群" style="rounded=0;whiteSpace=wrap;html=1;" vertex="1" parent="1">
          <mxGeometry x="330" y="310" width="120" height="60" as="geometry" />
        </mxCell>
        <mxCell id="kGQ6iBnwzE2i0ThxCA0L-3" value="微信吃瓜号" style="shape=cylinder3;whiteSpace=wrap;html=1;boundedLbl=1;backgroundOutline=1;size=15;" vertex="1" parent="1">
          <mxGeometry x="620" y="300" width="60" height="80" as="geometry" />
        </mxCell>
        <mxCell id="kGQ6iBnwzE2i0ThxCA0L-4" value="&lt;span style=&quot;&quot;&gt;微信群&lt;/span&gt;" style="rounded=0;whiteSpace=wrap;html=1;" vertex="1" parent="1">
          <mxGeometry x="480" y="310" width="120" height="60" as="geometry" />
        </mxCell>
        <mxCell id="kGQ6iBnwzE2i0ThxCA0L-5" value="吃瓜群" style="rounded=0;whiteSpace=wrap;html=1;" vertex="1" parent="1">
          <mxGeometry x="330" y="120" width="120" height="60" as="geometry" />
        </mxCell>
        <mxCell id="kGQ6iBnwzE2i0ThxCA0L-6" value="&lt;span style=&quot;&quot;&gt;吃瓜群&lt;/span&gt;" style="rounded=0;whiteSpace=wrap;html=1;" vertex="1" parent="1">
          <mxGeometry x="480" y="120" width="120" height="60" as="geometry" />
        </mxCell>
        <mxCell id="kGQ6iBnwzE2i0ThxCA0L-8" value="采集群" style="text;html=1;align=center;verticalAlign=middle;resizable=0;points=[];autosize=1;strokeColor=none;fillColor=none;fontSize=20;" vertex="1" parent="1">
          <mxGeometry x="420" y="280" width="80" height="30" as="geometry" />
        </mxCell>
        <mxCell id="kGQ6iBnwzE2i0ThxCA0L-10" value="免费吃瓜群" style="text;html=1;align=center;verticalAlign=middle;resizable=0;points=[];autosize=1;strokeColor=none;fillColor=none;fontSize=20;" vertex="1" parent="1">
          <mxGeometry x="400" y="90" width="120" height="30" as="geometry" />
        </mxCell>
        <mxCell id="kGQ6iBnwzE2i0ThxCA0L-50" style="edgeStyle=orthogonalEdgeStyle;rounded=0;orthogonalLoop=1;jettySize=auto;html=1;exitX=0.5;exitY=0.5;exitDx=0;exitDy=0;exitPerimeter=0;entryX=0;entryY=0.5;entryDx=0;entryDy=0;fontSize=12;" edge="1" parent="1" source="kGQ6iBnwzE2i0ThxCA0L-11" target="kGQ6iBnwzE2i0ThxCA0L-49">
          <mxGeometry relative="1" as="geometry" />
        </mxCell>
        <mxCell id="kGQ6iBnwzE2i0ThxCA0L-11" value="吃瓜人" style="shape=umlActor;verticalLabelPosition=bottom;verticalAlign=top;html=1;outlineConnect=0;" vertex="1" parent="1">
          <mxGeometry x="-150" y="40" width="30" height="60" as="geometry" />
        </mxCell>
        <mxCell id="kGQ6iBnwzE2i0ThxCA0L-12" value="" style="shape=cube;whiteSpace=wrap;html=1;boundedLbl=1;backgroundOutline=1;darkOpacity=0.05;darkOpacity2=0.1;" vertex="1" parent="1">
          <mxGeometry x="250" y="-120" width="440" height="140" as="geometry" />
        </mxCell>
        <mxCell id="kGQ6iBnwzE2i0ThxCA0L-13" value="吃瓜群" style="rounded=0;whiteSpace=wrap;html=1;" vertex="1" parent="1">
          <mxGeometry x="330" y="-70" width="120" height="60" as="geometry" />
        </mxCell>
        <mxCell id="kGQ6iBnwzE2i0ThxCA0L-14" value="&lt;span style=&quot;&quot;&gt;吃瓜群&lt;/span&gt;" style="rounded=0;whiteSpace=wrap;html=1;" vertex="1" parent="1">
          <mxGeometry x="480" y="-70" width="120" height="60" as="geometry" />
        </mxCell>
        <mxCell id="kGQ6iBnwzE2i0ThxCA0L-15" value="付费吃瓜群" style="text;html=1;align=center;verticalAlign=middle;resizable=0;points=[];autosize=1;strokeColor=none;fillColor=none;fontSize=20;" vertex="1" parent="1">
          <mxGeometry x="400" y="-100" width="120" height="30" as="geometry" />
        </mxCell>
        <mxCell id="kGQ6iBnwzE2i0ThxCA0L-22" style="edgeStyle=orthogonalEdgeStyle;rounded=0;orthogonalLoop=1;jettySize=auto;html=1;exitX=0.5;exitY=0;exitDx=0;exitDy=0;entryX=0;entryY=0;entryDx=0;entryDy=60;entryPerimeter=0;fontSize=12;" edge="1" parent="1" source="kGQ6iBnwzE2i0ThxCA0L-19" target="kGQ6iBnwzE2i0ThxCA0L-9">
          <mxGeometry relative="1" as="geometry" />
        </mxCell>
        <mxCell id="kGQ6iBnwzE2i0ThxCA0L-23" value="进群" style="edgeLabel;html=1;align=center;verticalAlign=middle;resizable=0;points=[];fontSize=12;" vertex="1" connectable="0" parent="kGQ6iBnwzE2i0ThxCA0L-22">
          <mxGeometry x="-0.0222" y="-2" relative="1" as="geometry">
            <mxPoint as="offset" />
          </mxGeometry>
        </mxCell>
        <mxCell id="kGQ6iBnwzE2i0ThxCA0L-24" style="edgeStyle=orthogonalEdgeStyle;rounded=0;orthogonalLoop=1;jettySize=auto;html=1;exitX=0.5;exitY=1;exitDx=0;exitDy=0;entryX=0;entryY=0;entryDx=0;entryDy=60;entryPerimeter=0;fontSize=12;" edge="1" parent="1" source="kGQ6iBnwzE2i0ThxCA0L-19" target="kGQ6iBnwzE2i0ThxCA0L-7">
          <mxGeometry relative="1" as="geometry" />
        </mxCell>
        <mxCell id="kGQ6iBnwzE2i0ThxCA0L-25" value="贡献吃瓜资源" style="edgeLabel;html=1;align=center;verticalAlign=middle;resizable=0;points=[];fontSize=12;" vertex="1" connectable="0" parent="kGQ6iBnwzE2i0ThxCA0L-24">
          <mxGeometry x="0.107" y="-3" relative="1" as="geometry">
            <mxPoint as="offset" />
          </mxGeometry>
        </mxCell>
        <mxCell id="kGQ6iBnwzE2i0ThxCA0L-19" value="拉吃瓜进3个群(大于100)" style="rhombus;whiteSpace=wrap;html=1;fontSize=12;" vertex="1" parent="1">
          <mxGeometry x="60" y="160" width="110" height="80" as="geometry" />
        </mxCell>
        <mxCell id="kGQ6iBnwzE2i0ThxCA0L-34" style="edgeStyle=orthogonalEdgeStyle;rounded=0;orthogonalLoop=1;jettySize=auto;html=1;exitX=0.5;exitY=0;exitDx=0;exitDy=0;exitPerimeter=0;fontSize=12;" edge="1" parent="1" source="kGQ6iBnwzE2i0ThxCA0L-26">
          <mxGeometry relative="1" as="geometry">
            <mxPoint x="990" y="-60" as="targetPoint" />
          </mxGeometry>
        </mxCell>
        <mxCell id="kGQ6iBnwzE2i0ThxCA0L-26" value="资源池" style="shape=cylinder3;whiteSpace=wrap;html=1;boundedLbl=1;backgroundOutline=1;size=15;fontSize=12;" vertex="1" parent="1">
          <mxGeometry x="960" y="80" width="60" height="80" as="geometry" />
        </mxCell>
        <mxCell id="kGQ6iBnwzE2i0ThxCA0L-32" value="审核员" style="shape=umlActor;verticalLabelPosition=bottom;verticalAlign=top;html=1;outlineConnect=0;fontSize=12;" vertex="1" parent="1">
          <mxGeometry x="1010" y="220" width="30" height="60" as="geometry" />
        </mxCell>
        <mxCell id="kGQ6iBnwzE2i0ThxCA0L-38" style="edgeStyle=orthogonalEdgeStyle;rounded=0;orthogonalLoop=1;jettySize=auto;html=1;exitX=0;exitY=0.5;exitDx=0;exitDy=0;fontSize=12;" edge="1" parent="1" source="kGQ6iBnwzE2i0ThxCA0L-37">
          <mxGeometry relative="1" as="geometry">
            <mxPoint x="690" y="-80" as="targetPoint" />
            <Array as="points">
              <mxPoint x="690" y="-85" />
            </Array>
          </mxGeometry>
        </mxCell>
        <mxCell id="kGQ6iBnwzE2i0ThxCA0L-39" style="edgeStyle=orthogonalEdgeStyle;rounded=0;orthogonalLoop=1;jettySize=auto;html=1;exitX=0.25;exitY=1;exitDx=0;exitDy=0;entryX=0;entryY=0;entryDx=430;entryDy=10;entryPerimeter=0;fontSize=12;" edge="1" parent="1" source="kGQ6iBnwzE2i0ThxCA0L-37" target="kGQ6iBnwzE2i0ThxCA0L-9">
          <mxGeometry relative="1" as="geometry">
            <Array as="points">
              <mxPoint x="960" y="50" />
              <mxPoint x="680" y="50" />
            </Array>
          </mxGeometry>
        </mxCell>
        <mxCell id="kGQ6iBnwzE2i0ThxCA0L-37" value="群发社群" style="shape=parallelogram;perimeter=parallelogramPerimeter;whiteSpace=wrap;html=1;fixedSize=1;fontSize=12;" vertex="1" parent="1">
          <mxGeometry x="930" y="-115" width="120" height="60" as="geometry" />
        </mxCell>
        <mxCell id="kGQ6iBnwzE2i0ThxCA0L-42" value="" style="endArrow=none;dashed=1;html=1;dashPattern=1 3;strokeWidth=2;rounded=0;fontSize=12;" edge="1" parent="1">
          <mxGeometry width="50" height="50" relative="1" as="geometry">
            <mxPoint x="900" y="-20" as="sourcePoint" />
            <mxPoint x="1120" y="-20" as="targetPoint" />
          </mxGeometry>
        </mxCell>
        <mxCell id="kGQ6iBnwzE2i0ThxCA0L-43" value="" style="endArrow=none;dashed=1;html=1;dashPattern=1 3;strokeWidth=2;rounded=0;fontSize=12;" edge="1" parent="1">
          <mxGeometry width="50" height="50" relative="1" as="geometry">
            <mxPoint x="900" y="40" as="sourcePoint" />
            <mxPoint x="1120" y="40" as="targetPoint" />
          </mxGeometry>
        </mxCell>
        <mxCell id="kGQ6iBnwzE2i0ThxCA0L-44" value="视频加工" style="ellipse;whiteSpace=wrap;html=1;aspect=fixed;fontSize=12;" vertex="1" parent="1">
          <mxGeometry x="1010" y="-10" width="50" height="50" as="geometry" />
        </mxCell>
        <mxCell id="kGQ6iBnwzE2i0ThxCA0L-45" value="广告植入" style="ellipse;whiteSpace=wrap;html=1;aspect=fixed;fontSize=12;" vertex="1" parent="1">
          <mxGeometry x="1070" y="-10" width="50" height="50" as="geometry" />
        </mxCell>
        <mxCell id="kGQ6iBnwzE2i0ThxCA0L-51" style="edgeStyle=orthogonalEdgeStyle;rounded=0;orthogonalLoop=1;jettySize=auto;html=1;exitX=0.5;exitY=1;exitDx=0;exitDy=0;entryX=0;entryY=0.5;entryDx=0;entryDy=0;fontSize=12;" edge="1" parent="1" source="kGQ6iBnwzE2i0ThxCA0L-49" target="kGQ6iBnwzE2i0ThxCA0L-19">
          <mxGeometry relative="1" as="geometry" />
        </mxCell>
        <mxCell id="kGQ6iBnwzE2i0ThxCA0L-52" value="否" style="edgeLabel;html=1;align=center;verticalAlign=middle;resizable=0;points=[];fontSize=12;" vertex="1" connectable="0" parent="kGQ6iBnwzE2i0ThxCA0L-51">
          <mxGeometry x="0.1059" y="1" relative="1" as="geometry">
            <mxPoint as="offset" />
          </mxGeometry>
        </mxCell>
        <mxCell id="kGQ6iBnwzE2i0ThxCA0L-53" style="edgeStyle=orthogonalEdgeStyle;rounded=0;orthogonalLoop=1;jettySize=auto;html=1;exitX=0.5;exitY=0;exitDx=0;exitDy=0;entryX=0;entryY=0;entryDx=0;entryDy=60;entryPerimeter=0;fontSize=12;" edge="1" parent="1" source="kGQ6iBnwzE2i0ThxCA0L-49" target="kGQ6iBnwzE2i0ThxCA0L-12">
          <mxGeometry relative="1" as="geometry" />
        </mxCell>
        <mxCell id="kGQ6iBnwzE2i0ThxCA0L-54" value="是" style="edgeLabel;html=1;align=center;verticalAlign=middle;resizable=0;points=[];fontSize=12;" vertex="1" connectable="0" parent="kGQ6iBnwzE2i0ThxCA0L-53">
          <mxGeometry x="-0.6445" relative="1" as="geometry">
            <mxPoint as="offset" />
          </mxGeometry>
        </mxCell>
        <mxCell id="kGQ6iBnwzE2i0ThxCA0L-49" value="是否付费" style="rhombus;whiteSpace=wrap;html=1;fontSize=12;" vertex="1" parent="1">
          <mxGeometry x="-60" y="30" width="80" height="80" as="geometry" />
        </mxCell>
        <mxCell id="kGQ6iBnwzE2i0ThxCA0L-58" value="流量池" style="text;html=1;align=center;verticalAlign=middle;resizable=0;points=[];autosize=1;strokeColor=none;fillColor=none;fontSize=20;" vertex="1" parent="1">
          <mxGeometry x="430" y="-180" width="80" height="30" as="geometry" />
        </mxCell>
        <mxCell id="kGQ6iBnwzE2i0ThxCA0L-59" value="" style="shape=flexArrow;endArrow=classic;html=1;rounded=0;fontSize=12;" edge="1" parent="1" target="kGQ6iBnwzE2i0ThxCA0L-61">
          <mxGeometry width="50" height="50" relative="1" as="geometry">
            <mxPoint x="469.5" y="-190" as="sourcePoint" />
            <mxPoint x="470" y="-260" as="targetPoint" />
          </mxGeometry>
        </mxCell>
        <mxCell id="kGQ6iBnwzE2i0ThxCA0L-65" style="edgeStyle=orthogonalEdgeStyle;rounded=0;orthogonalLoop=1;jettySize=auto;html=1;exitX=0;exitY=0;exitDx=0;exitDy=60;exitPerimeter=0;entryX=0.5;entryY=0;entryDx=0;entryDy=0;entryPerimeter=0;fontSize=12;" edge="1" parent="1" source="kGQ6iBnwzE2i0ThxCA0L-61" target="kGQ6iBnwzE2i0ThxCA0L-11">
          <mxGeometry relative="1" as="geometry" />
        </mxCell>
        <mxCell id="kGQ6iBnwzE2i0ThxCA0L-66" value="吸引用户" style="edgeLabel;html=1;align=center;verticalAlign=middle;resizable=0;points=[];fontSize=12;" vertex="1" connectable="0" parent="kGQ6iBnwzE2i0ThxCA0L-65">
          <mxGeometry x="-0.618" y="1" relative="1" as="geometry">
            <mxPoint as="offset" />
          </mxGeometry>
        </mxCell>
        <mxCell id="kGQ6iBnwzE2i0ThxCA0L-61" value="" style="shape=cube;whiteSpace=wrap;html=1;boundedLbl=1;backgroundOutline=1;darkOpacity=0.05;darkOpacity2=0.1;" vertex="1" parent="1">
          <mxGeometry x="260" y="-380" width="440" height="140" as="geometry" />
        </mxCell>
        <mxCell id="kGQ6iBnwzE2i0ThxCA0L-62" value="普通社群" style="rounded=0;whiteSpace=wrap;html=1;" vertex="1" parent="1">
          <mxGeometry x="340" y="-330" width="120" height="60" as="geometry" />
        </mxCell>
        <mxCell id="kGQ6iBnwzE2i0ThxCA0L-63" value="&lt;span style=&quot;&quot;&gt;普通吃瓜群&lt;/span&gt;" style="rounded=0;whiteSpace=wrap;html=1;" vertex="1" parent="1">
          <mxGeometry x="490" y="-330" width="120" height="60" as="geometry" />
        </mxCell>
        <mxCell id="kGQ6iBnwzE2i0ThxCA0L-64" value="外部社群" style="text;html=1;align=center;verticalAlign=middle;resizable=0;points=[];autosize=1;strokeColor=none;fillColor=none;fontSize=20;" vertex="1" parent="1">
          <mxGeometry x="420" y="-360" width="100" height="30" as="geometry" />
        </mxCell>
      </root>
    </mxGraphModel>
  </diagram>
</mxfile>
